<svg width="1440" height="463" viewBox="0 0 1440 463" fill="none" xmlns="http://www.w3.org/2000/svg">
<mask id="mask0_940_1564" style="mask-type:alpha" maskUnits="userSpaceOnUse" x="-2" y="0" width="1443" height="463">
<rect x="-2" width="1443" height="463" fill="#F4F4F4"/>
</mask>
<g mask="url(#mask0_940_1564)">
<g opacity="0.1">
<path d="M103.811 171.733C103.811 58.6576 12.6487 -32.9988 -99.7938 -32.9988C-212.236 -32.9988 -303.398 58.6575 -303.398 171.733C-303.398 284.808 -212.236 376.465 -99.7939 376.465C12.6487 376.465 103.811 284.808 103.811 171.733Z" stroke="black" stroke-width="2"/>
<path d="M1333.95 580.76C1333.41 468.144 1242.45 377.028 1130.34 377.028C1018.23 377.028 927.276 468.144 926.741 580.76L1333.95 580.76Z" stroke="black" stroke-width="2"/>
<path d="M1539.35 -30.5841C1426.02 -30.5841 1334.16 60.5614 1334.16 172.978C1334.16 285.395 1426.02 376.541 1539.35 376.541C1652.68 376.541 1744.54 285.396 1744.54 172.978C1744.54 60.5615 1652.68 -30.5841 1539.35 -30.5841Z" stroke="black" stroke-width="2"/>
<path d="M103.812 173.297V376.463H308.106C307.566 264.5 216.404 173.831 103.812 173.297Z" stroke="black" stroke-width="2"/>
<path d="M1333.95 173.297L1333.95 376.463L1128.53 376.463C1129.07 264.504 1220.73 173.828 1333.95 173.297Z" stroke="black" stroke-width="2"/>
<path d="M924.738 376.467L924.738 580.76L721.572 580.76C722.106 468.168 812.776 377.007 924.738 376.467Z" stroke="black" stroke-width="2"/>
<path d="M1334 377.592L1537.17 377.592L1537.17 581.885C1425.21 581.345 1334.54 490.183 1334 377.592Z" stroke="black" stroke-width="2"/>
<path d="M102.811 377.591C215.859 377.591 307.566 468.965 308.104 581.887L-102.482 581.887C-101.943 468.965 -10.2369 377.591 102.811 377.591Z" stroke="black" stroke-width="2"/>
<path d="M513.296 377.603C626.344 377.603 718.05 468.977 718.589 581.898L308.002 581.898C308.541 468.977 400.247 377.603 513.296 377.603Z" stroke="black" stroke-width="2"/>
</g>
</g>
</svg>
